<svg width="28" height="27" viewBox="0 0 28 27" fill="none" xmlns="http://www.w3.org/2000/svg">
<path d="M22.9996 0H4.59961V2H22.9996V0Z" fill="#1E1214"/>
<path d="M20.5 4H7V6H20.5V4Z" fill="#1E1214"/>
<path d="M24.3 10.3994H25.2V8.39941H2.2V10.3994H3.1L0 15.8994L0.3 16.3994C1.3 17.9994 3 19.0994 4.9 19.0994C6.8 19.0994 8.6 18.0994 9.5 16.3994L9.8 15.8994L7.9 12.5994L6.2 13.5994L7.5 15.7994C6.9 16.5994 5.9 16.9994 4.9 16.9994C3.9 16.9994 3 16.5994 2.3 15.8994L5.5 10.3994H12.8V24.5994H10.3V26.5994H17.3V24.5994H14.8V10.3994H22L25.2 15.8994C24.6 16.6994 23.6 17.0994 22.6 17.0994C21.6 17.0994 20.7 16.5994 20 15.8994L21.3 13.6994L19.6 12.6994L17.7 15.9994L18 16.4994C19 18.0994 20.7 19.1994 22.6 19.1994C24.5 19.1994 26.3 18.1994 27.2 16.4994L27.5 15.9994L24.3 10.3994Z" fill="#1E1214"/>
</svg>
