<svg width="163" height="27" viewBox="0 0 163 27" fill="none" xmlns="http://www.w3.org/2000/svg">
<g clip-path="url(#clip0_4_26)">
<path d="M23 0H4.6V2H23V0Z" fill="#1E1214"/>
<path d="M20.5 4H7V6H20.5V4Z" fill="#1E1214"/>
<path d="M24.3 10.3999H25.2V8.3999H2.2V10.3999H3.1L0 15.8999L0.3 16.3999C1.3 17.9999 3 19.0999 4.9 19.0999C6.8 19.0999 8.6 18.0999 9.5 16.3999L9.8 15.8999L7.9 12.5999L6.2 13.5999L7.5 15.7999C6.9 16.5999 5.9 16.9999 4.9 16.9999C3.9 16.9999 3 16.5999 2.3 15.8999L5.5 10.3999H12.8V24.5999H10.3V26.5999H17.3V24.5999H14.8V10.3999H22L25.2 15.8999C24.6 16.6999 23.6 17.0999 22.6 17.0999C21.6 17.0999 20.7 16.5999 20 15.8999L21.3 13.6999L19.6 12.6999L17.7 15.9999L18 16.4999C19 18.0999 20.7 19.1999 22.6 19.1999C24.5 19.1999 26.3 18.1999 27.2 16.4999L27.5 15.9999L24.3 10.3999Z" fill="#1E1214"/>
<path d="M40.2 7.9001L38.8 7.7001V6.6001H44.6V7.7001L42.9 7.9001V18.6001L46.8 18.4001L47.9 15.0001L49.4 15.2001L48.7 20.0001H38.7V18.9001L40.1 18.7001V7.9001H40.2Z" fill="#1E1214"/>
<path d="M59.8 6.5H62.6L66.8 18.7L67.8 18.9V20H62.5V18.9L63.9 18.7L63.2 16.4H58.5L57.8 18.8L59.3 19V20H54.7V18.9L55.8 18.7L59.8 6.5ZM61.1 9.6L60.8 8.2L60.5 9.6L58.9 15.1H62.9L61.1 9.6Z" fill="#1E1214"/>
<path d="M72.6 6.6001H78V7.7001L76.4 7.9001L78.7 16.0001L79.1 18.0001L79.5 16.0001L81.4 9.4001L81 7.9001L79.8 7.7001V6.6001H85.4V7.7001L83.7 7.9001L86 16.0001L86.5 18.2001L86.9 16.0001L89 7.9001L87.4 7.7001V6.6001H91.7V7.7001L90.5 7.9001L87 20.1001H84.6L82.1 11.7001L79.7 20.1001H77.4L73.7 8.0001L72.6 7.7001V6.6001V6.6001Z" fill="#1E1214"/>
<path d="M106.2 19.3001C105.9 18.8001 105.5 18.1001 105 17.1001C104.6 16.2001 104.2 15.5001 103.9 15.0001C103.6 14.5001 103.3 14.0001 103 13.7001L101.4 15.5001V18.7001L102.9 18.9001V20.0001H97.3V18.9001L98.7 18.7001V7.9001L97.3 7.7001V6.6001H102.7V7.7001L101.3 7.9001V13.8001L106 7.9001L104.5 7.7001V6.6001H109.4V7.7001L108 7.9001L104.5 11.8001C104.9 12.2001 105.4 12.7001 105.8 13.4001C106.3 14.1001 106.8 15.0001 107.5 16.1001C108 16.9001 108.4 17.5001 108.6 17.9001C108.8 18.3001 109 18.5001 109.2 18.6001L110 18.8001V20.0001H106.8C106.7 20.0001 106.5 19.7001 106.2 19.3001Z" fill="#1E1214"/>
<path d="M120.4 6.5H123.2L127.4 18.7L128.4 18.9V20H123V18.9L124.4 18.7L123.7 16.4H119L118.3 18.8L119.8 19V20H115.2V18.9L116.3 18.7L120.4 6.5ZM121.6 9.6L121.3 8.2L121 9.6L119.4 15.1H123.4L121.6 9.6Z" fill="#1E1214"/>
<path d="M137.1 20C136.6 19.9 136 19.7 135.4 19.6C135 19.5 134.7 19.4 134.6 19.4L134.8 16.1H136.3L136.7 18.4C136.9 18.6 137.1 18.7 137.5 18.9C137.9 19.1 138.4 19.1 138.9 19.1C139.7 19.1 140.3 18.9 140.7 18.6C141.1 18.2 141.3 17.8 141.3 17.1C141.3 16.7 141.2 16.3 140.9 16C140.6 15.7 140.3 15.4 139.9 15.2C139.5 15 138.9 14.7 138.2 14.3C137.2 13.8 136.4 13.3 135.7 12.7C135 12.1 134.7 11.2 134.7 10.1C134.7 9.4 134.9 8.8 135.2 8.3C135.5 7.8 136.1 7.3 136.8 7C137.5 6.7 138.3 6.5 139.3 6.5C139.9 6.5 140.4 6.5 140.9 6.6C141.4 6.7 141.8 6.8 142.4 6.9C142.7 7 142.9 7 143.1 7.1L143 10.2H141.6L141.1 8C141 7.9 140.8 7.8 140.5 7.7C140.2 7.6 139.8 7.5 139.4 7.5C138.7 7.5 138.1 7.7 137.8 8C137.5 8.3 137.3 8.8 137.3 9.3C137.3 9.7 137.4 10.1 137.7 10.5C138 10.8 138.3 11.1 138.7 11.3C139.1 11.5 139.7 11.8 140.5 12.2C141.2 12.5 141.7 12.8 142.2 13.2C142.7 13.5 143.1 13.9 143.4 14.4C143.7 14.9 143.9 15.5 143.9 16.2C143.9 16.9 143.7 17.5 143.4 18.1C143.1 18.7 142.5 19.2 141.8 19.6C141.1 20 140.1 20.2 138.9 20.2C138.2 20.2 137.6 20.1 137.1 20Z" fill="#1E1214"/>
<path d="M154.7 6.5H157.5L161.7 18.7L162.7 18.9V20H157.4V18.9L158.8 18.7L158.1 16.4H153.4L152.7 18.8L154.2 19V20H149.6V18.9L150.7 18.7L154.7 6.5ZM155.9 9.6L155.6 8.2L155.3 9.6L153.7 15.1H157.7L155.9 9.6Z" fill="#1E1214"/>
</g>
<defs>
<clipPath id="clip0_4_26">
<rect width="162.6" height="26.6" fill="white"/>
</clipPath>
</defs>
</svg>
